<?xml version="1.0" encoding="utf-8" standalone="no"?>
<!DOCTYPE svg PUBLIC "-//W3C//DTD SVG 1.1//EN"
  "http://www.w3.org/Graphics/SVG/1.1/DTD/svg11.dtd">
<svg height="360pt" version="1.1" viewBox="0 0 360 360" width="360pt" xmlns="http://www.w3.org/2000/svg" xmlns:xlink="http://www.w3.org/1999/xlink">
 <metadata>
  <rdf:RDF xmlns:cc="http://creativecommons.org/ns#" xmlns:dc="http://purl.org/dc/elements/1.1/" xmlns:rdf="http://www.w3.org/1999/02/22-rdf-syntax-ns#">
   <cc:Work>
    <dc:type rdf:resource="http://purl.org/dc/dcmitype/StillImage"/>
    <dc:date>2023-03-24T20:09:08.869490</dc:date>
    <dc:format>image/svg+xml</dc:format>
    <dc:creator>
     <cc:Agent>
      <dc:title>Matplotlib v3.4.3, https://matplotlib.org/</dc:title>
     </cc:Agent>
    </dc:creator>
   </cc:Work>
  </rdf:RDF>
 </metadata>
 <defs>
  <style type="text/css">*{stroke-linecap:butt;stroke-linejoin:round;}</style>
 </defs>
 <g id="figure_1">
  <g id="patch_1">
   <path d="M 0 360 
L 360 360 
L 360 0 
L 0 0 
z
" style="fill:#ffffff;"/>
  </g>
  <g id="axes_1">
   <g id="patch_2">
    <path d="M 54.2 332.12 
L 345.442884 332.12 
L 345.442884 10.8 
L 54.2 10.8 
z
" style="fill:#ffffff;"/>
   </g>
   <g id="patch_3">
    <path clip-path="url(#p1edc517a68)" d="M 68.07025 332.12 
L 71.037868 332.12 
L 71.037868 308.786048 
L 68.07025 308.786048 
z
" style="fill:#1f77b4;fill-opacity:0.75;stroke:#000000;stroke-linejoin:miter;stroke-width:0.325058;"/>
   </g>
   <g id="patch_4">
    <path clip-path="url(#p1edc517a68)" d="M 71.037868 332.12 
L 74.005486 332.12 
L 74.005486 279.204206 
L 71.037868 279.204206 
z
" style="fill:#1f77b4;fill-opacity:0.75;stroke:#000000;stroke-linejoin:miter;stroke-width:0.325058;"/>
   </g>
   <g id="patch_5">
    <path clip-path="url(#p1edc517a68)" d="M 74.005486 332.12 
L 76.973104 332.12 
L 76.973104 247.709746 
L 74.005486 247.709746 
z
" style="fill:#1f77b4;fill-opacity:0.75;stroke:#000000;stroke-linejoin:miter;stroke-width:0.325058;"/>
   </g>
   <g id="patch_6">
    <path clip-path="url(#p1edc517a68)" d="M 76.973104 332.12 
L 79.940722 332.12 
L 79.940722 223.610746 
L 76.973104 223.610746 
z
" style="fill:#1f77b4;fill-opacity:0.75;stroke:#000000;stroke-linejoin:miter;stroke-width:0.325058;"/>
   </g>
   <g id="patch_7">
    <path clip-path="url(#p1edc517a68)" d="M 79.940722 332.12 
L 82.90834 332.12 
L 82.90834 200.659317 
L 79.940722 200.659317 
z
" style="fill:#1f77b4;fill-opacity:0.75;stroke:#000000;stroke-linejoin:miter;stroke-width:0.325058;"/>
   </g>
   <g id="patch_8">
    <path clip-path="url(#p1edc517a68)" d="M 82.90834 332.12 
L 85.875958 332.12 
L 85.875958 185.995905 
L 82.90834 185.995905 
z
" style="fill:#1f77b4;fill-opacity:0.75;stroke:#000000;stroke-linejoin:miter;stroke-width:0.325058;"/>
   </g>
   <g id="patch_9">
    <path clip-path="url(#p1edc517a68)" d="M 85.875958 332.12 
L 88.843576 332.12 
L 88.843576 165.594635 
L 85.875958 165.594635 
z
" style="fill:#1f77b4;fill-opacity:0.75;stroke:#000000;stroke-linejoin:miter;stroke-width:0.325058;"/>
   </g>
   <g id="patch_10">
    <path clip-path="url(#p1edc517a68)" d="M 88.843576 332.12 
L 91.811194 332.12 
L 91.811194 147.105984 
L 88.843576 147.105984 
z
" style="fill:#1f77b4;fill-opacity:0.75;stroke:#000000;stroke-linejoin:miter;stroke-width:0.325058;"/>
   </g>
   <g id="patch_11">
    <path clip-path="url(#p1edc517a68)" d="M 91.811194 332.12 
L 94.778813 332.12 
L 94.778813 125.557143 
L 91.811194 125.557143 
z
" style="fill:#1f77b4;fill-opacity:0.75;stroke:#000000;stroke-linejoin:miter;stroke-width:0.325058;"/>
   </g>
   <g id="patch_12">
    <path clip-path="url(#p1edc517a68)" d="M 94.778813 332.12 
L 97.746431 332.12 
L 97.746431 112.296317 
L 94.778813 112.296317 
z
" style="fill:#1f77b4;fill-opacity:0.75;stroke:#000000;stroke-linejoin:miter;stroke-width:0.325058;"/>
   </g>
   <g id="patch_13">
    <path clip-path="url(#p1edc517a68)" d="M 97.746431 332.12 
L 100.714049 332.12 
L 100.714049 103.115746 
L 97.746431 103.115746 
z
" style="fill:#1f77b4;fill-opacity:0.75;stroke:#000000;stroke-linejoin:miter;stroke-width:0.325058;"/>
   </g>
   <g id="patch_14">
    <path clip-path="url(#p1edc517a68)" d="M 100.714049 332.12 
L 103.681667 332.12 
L 103.681667 91.13 
L 100.714049 91.13 
z
" style="fill:#1f77b4;fill-opacity:0.75;stroke:#000000;stroke-linejoin:miter;stroke-width:0.325058;"/>
   </g>
   <g id="patch_15">
    <path clip-path="url(#p1edc517a68)" d="M 103.681667 332.12 
L 106.649285 332.12 
L 106.649285 79.909302 
L 103.681667 79.909302 
z
" style="fill:#1f77b4;fill-opacity:0.75;stroke:#000000;stroke-linejoin:miter;stroke-width:0.325058;"/>
   </g>
   <g id="patch_16">
    <path clip-path="url(#p1edc517a68)" d="M 106.649285 332.12 
L 109.616903 332.12 
L 109.616903 58.998 
L 106.649285 58.998 
z
" style="fill:#1f77b4;fill-opacity:0.75;stroke:#000000;stroke-linejoin:miter;stroke-width:0.325058;"/>
   </g>
   <g id="patch_17">
    <path clip-path="url(#p1edc517a68)" d="M 109.616903 332.12 
L 112.584521 332.12 
L 112.584521 64.990873 
L 109.616903 64.990873 
z
" style="fill:#1f77b4;fill-opacity:0.75;stroke:#000000;stroke-linejoin:miter;stroke-width:0.325058;"/>
   </g>
   <g id="patch_18">
    <path clip-path="url(#p1edc517a68)" d="M 112.584521 332.12 
L 115.552139 332.12 
L 115.552139 48.542349 
L 112.584521 48.542349 
z
" style="fill:#1f77b4;fill-opacity:0.75;stroke:#000000;stroke-linejoin:miter;stroke-width:0.325058;"/>
   </g>
   <g id="patch_19">
    <path clip-path="url(#p1edc517a68)" d="M 115.552139 332.12 
L 118.519757 332.12 
L 118.519757 50.454968 
L 115.552139 50.454968 
z
" style="fill:#1f77b4;fill-opacity:0.75;stroke:#000000;stroke-linejoin:miter;stroke-width:0.325058;"/>
   </g>
   <g id="patch_20">
    <path clip-path="url(#p1edc517a68)" d="M 118.519757 332.12 
L 121.487375 332.12 
L 121.487375 33.241397 
L 118.519757 33.241397 
z
" style="fill:#1f77b4;fill-opacity:0.75;stroke:#000000;stroke-linejoin:miter;stroke-width:0.325058;"/>
   </g>
   <g id="patch_21">
    <path clip-path="url(#p1edc517a68)" d="M 121.487375 332.12 
L 124.454993 332.12 
L 124.454993 31.711302 
L 121.487375 31.711302 
z
" style="fill:#1f77b4;fill-opacity:0.75;stroke:#000000;stroke-linejoin:miter;stroke-width:0.325058;"/>
   </g>
   <g id="patch_22">
    <path clip-path="url(#p1edc517a68)" d="M 124.454993 332.12 
L 127.422611 332.12 
L 127.422611 37.449159 
L 124.454993 37.449159 
z
" style="fill:#1f77b4;fill-opacity:0.75;stroke:#000000;stroke-linejoin:miter;stroke-width:0.325058;"/>
   </g>
   <g id="patch_23">
    <path clip-path="url(#p1edc517a68)" d="M 127.422611 332.12 
L 130.390229 332.12 
L 130.390229 42.039444 
L 127.422611 42.039444 
z
" style="fill:#1f77b4;fill-opacity:0.75;stroke:#000000;stroke-linejoin:miter;stroke-width:0.325058;"/>
   </g>
   <g id="patch_24">
    <path clip-path="url(#p1edc517a68)" d="M 130.390229 332.12 
L 133.357847 332.12 
L 133.357847 30.436222 
L 130.390229 30.436222 
z
" style="fill:#1f77b4;fill-opacity:0.75;stroke:#000000;stroke-linejoin:miter;stroke-width:0.325058;"/>
   </g>
   <g id="patch_25">
    <path clip-path="url(#p1edc517a68)" d="M 133.357847 332.12 
L 136.325465 332.12 
L 136.325465 26.100952 
L 133.357847 26.100952 
z
" style="fill:#1f77b4;fill-opacity:0.75;stroke:#000000;stroke-linejoin:miter;stroke-width:0.325058;"/>
   </g>
   <g id="patch_26">
    <path clip-path="url(#p1edc517a68)" d="M 136.325465 332.12 
L 139.293083 332.12 
L 139.293083 27.631048 
L 136.325465 27.631048 
z
" style="fill:#1f77b4;fill-opacity:0.75;stroke:#000000;stroke-linejoin:miter;stroke-width:0.325058;"/>
   </g>
   <g id="patch_27">
    <path clip-path="url(#p1edc517a68)" d="M 139.293083 332.12 
L 142.260701 332.12 
L 142.260701 37.576667 
L 139.293083 37.576667 
z
" style="fill:#1f77b4;fill-opacity:0.75;stroke:#000000;stroke-linejoin:miter;stroke-width:0.325058;"/>
   </g>
   <g id="patch_28">
    <path clip-path="url(#p1edc517a68)" d="M 142.260701 332.12 
L 145.228319 332.12 
L 145.228319 37.704175 
L 142.260701 37.704175 
z
" style="fill:#1f77b4;fill-opacity:0.75;stroke:#000000;stroke-linejoin:miter;stroke-width:0.325058;"/>
   </g>
   <g id="patch_29">
    <path clip-path="url(#p1edc517a68)" d="M 145.228319 332.12 
L 148.195937 332.12 
L 148.195937 39.361778 
L 145.228319 39.361778 
z
" style="fill:#1f77b4;fill-opacity:0.75;stroke:#000000;stroke-linejoin:miter;stroke-width:0.325058;"/>
   </g>
   <g id="patch_30">
    <path clip-path="url(#p1edc517a68)" d="M 148.195937 332.12 
L 151.163555 332.12 
L 151.163555 32.986381 
L 148.195937 32.986381 
z
" style="fill:#1f77b4;fill-opacity:0.75;stroke:#000000;stroke-linejoin:miter;stroke-width:0.325058;"/>
   </g>
   <g id="patch_31">
    <path clip-path="url(#p1edc517a68)" d="M 151.163555 332.12 
L 154.131173 332.12 
L 154.131173 49.179889 
L 151.163555 49.179889 
z
" style="fill:#1f77b4;fill-opacity:0.75;stroke:#000000;stroke-linejoin:miter;stroke-width:0.325058;"/>
   </g>
   <g id="patch_32">
    <path clip-path="url(#p1edc517a68)" d="M 154.131173 332.12 
L 157.098791 332.12 
L 157.098791 51.985063 
L 154.131173 51.985063 
z
" style="fill:#1f77b4;fill-opacity:0.75;stroke:#000000;stroke-linejoin:miter;stroke-width:0.325058;"/>
   </g>
   <g id="patch_33">
    <path clip-path="url(#p1edc517a68)" d="M 157.098791 332.12 
L 160.066409 332.12 
L 160.066409 47.012254 
L 157.098791 47.012254 
z
" style="fill:#1f77b4;fill-opacity:0.75;stroke:#000000;stroke-linejoin:miter;stroke-width:0.325058;"/>
   </g>
   <g id="patch_34">
    <path clip-path="url(#p1edc517a68)" d="M 160.066409 332.12 
L 163.034027 332.12 
L 163.034027 62.440714 
L 160.066409 62.440714 
z
" style="fill:#1f77b4;fill-opacity:0.75;stroke:#000000;stroke-linejoin:miter;stroke-width:0.325058;"/>
   </g>
   <g id="patch_35">
    <path clip-path="url(#p1edc517a68)" d="M 163.034027 332.12 
L 166.001645 332.12 
L 166.001645 60.273079 
L 163.034027 60.273079 
z
" style="fill:#1f77b4;fill-opacity:0.75;stroke:#000000;stroke-linejoin:miter;stroke-width:0.325058;"/>
   </g>
   <g id="patch_36">
    <path clip-path="url(#p1edc517a68)" d="M 166.001645 332.12 
L 168.969263 332.12 
L 168.969263 74.681476 
L 166.001645 74.681476 
z
" style="fill:#1f77b4;fill-opacity:0.75;stroke:#000000;stroke-linejoin:miter;stroke-width:0.325058;"/>
   </g>
   <g id="patch_37">
    <path clip-path="url(#p1edc517a68)" d="M 168.969263 332.12 
L 171.936881 332.12 
L 171.936881 76.466587 
L 168.969263 76.466587 
z
" style="fill:#1f77b4;fill-opacity:0.75;stroke:#000000;stroke-linejoin:miter;stroke-width:0.325058;"/>
   </g>
   <g id="patch_38">
    <path clip-path="url(#p1edc517a68)" d="M 171.936881 332.12 
L 174.904499 332.12 
L 174.904499 87.814794 
L 171.936881 87.814794 
z
" style="fill:#1f77b4;fill-opacity:0.75;stroke:#000000;stroke-linejoin:miter;stroke-width:0.325058;"/>
   </g>
   <g id="patch_39">
    <path clip-path="url(#p1edc517a68)" d="M 174.904499 332.12 
L 177.872118 332.12 
L 177.872118 93.297635 
L 174.904499 93.297635 
z
" style="fill:#1f77b4;fill-opacity:0.75;stroke:#000000;stroke-linejoin:miter;stroke-width:0.325058;"/>
   </g>
   <g id="patch_40">
    <path clip-path="url(#p1edc517a68)" d="M 177.872118 332.12 
L 180.839736 332.12 
L 180.839736 87.687286 
L 177.872118 87.687286 
z
" style="fill:#1f77b4;fill-opacity:0.75;stroke:#000000;stroke-linejoin:miter;stroke-width:0.325058;"/>
   </g>
   <g id="patch_41">
    <path clip-path="url(#p1edc517a68)" d="M 180.839736 332.12 
L 183.807354 332.12 
L 183.807354 109.746159 
L 180.839736 109.746159 
z
" style="fill:#1f77b4;fill-opacity:0.75;stroke:#000000;stroke-linejoin:miter;stroke-width:0.325058;"/>
   </g>
   <g id="patch_42">
    <path clip-path="url(#p1edc517a68)" d="M 183.807354 332.12 
L 186.774972 332.12 
L 186.774972 111.53127 
L 183.807354 111.53127 
z
" style="fill:#1f77b4;fill-opacity:0.75;stroke:#000000;stroke-linejoin:miter;stroke-width:0.325058;"/>
   </g>
   <g id="patch_43">
    <path clip-path="url(#p1edc517a68)" d="M 186.774972 332.12 
L 189.74259 332.12 
L 189.74259 131.422508 
L 186.774972 131.422508 
z
" style="fill:#1f77b4;fill-opacity:0.75;stroke:#000000;stroke-linejoin:miter;stroke-width:0.325058;"/>
   </g>
   <g id="patch_44">
    <path clip-path="url(#p1edc517a68)" d="M 189.74259 332.12 
L 192.710208 332.12 
L 192.710208 128.744841 
L 189.74259 128.744841 
z
" style="fill:#1f77b4;fill-opacity:0.75;stroke:#000000;stroke-linejoin:miter;stroke-width:0.325058;"/>
   </g>
   <g id="patch_45">
    <path clip-path="url(#p1edc517a68)" d="M 192.710208 332.12 
L 195.677826 332.12 
L 195.677826 141.750651 
L 192.710208 141.750651 
z
" style="fill:#1f77b4;fill-opacity:0.75;stroke:#000000;stroke-linejoin:miter;stroke-width:0.325058;"/>
   </g>
   <g id="patch_46">
    <path clip-path="url(#p1edc517a68)" d="M 195.677826 332.12 
L 198.645444 332.12 
L 198.645444 150.931222 
L 195.677826 150.931222 
z
" style="fill:#1f77b4;fill-opacity:0.75;stroke:#000000;stroke-linejoin:miter;stroke-width:0.325058;"/>
   </g>
   <g id="patch_47">
    <path clip-path="url(#p1edc517a68)" d="M 198.645444 332.12 
L 201.613062 332.12 
L 201.613062 149.911159 
L 198.645444 149.911159 
z
" style="fill:#1f77b4;fill-opacity:0.75;stroke:#000000;stroke-linejoin:miter;stroke-width:0.325058;"/>
   </g>
   <g id="patch_48">
    <path clip-path="url(#p1edc517a68)" d="M 201.613062 332.12 
L 204.58068 332.12 
L 204.58068 166.997222 
L 201.613062 166.997222 
z
" style="fill:#1f77b4;fill-opacity:0.75;stroke:#000000;stroke-linejoin:miter;stroke-width:0.325058;"/>
   </g>
   <g id="patch_49">
    <path clip-path="url(#p1edc517a68)" d="M 204.58068 332.12 
L 207.548298 332.12 
L 207.548298 168.527317 
L 204.58068 168.527317 
z
" style="fill:#1f77b4;fill-opacity:0.75;stroke:#000000;stroke-linejoin:miter;stroke-width:0.325058;"/>
   </g>
   <g id="patch_50">
    <path clip-path="url(#p1edc517a68)" d="M 207.548298 332.12 
L 210.515916 332.12 
L 210.515916 174.902714 
L 207.548298 174.902714 
z
" style="fill:#1f77b4;fill-opacity:0.75;stroke:#000000;stroke-linejoin:miter;stroke-width:0.325058;"/>
   </g>
   <g id="patch_51">
    <path clip-path="url(#p1edc517a68)" d="M 210.515916 332.12 
L 213.483534 332.12 
L 213.483534 184.593317 
L 210.515916 184.593317 
z
" style="fill:#1f77b4;fill-opacity:0.75;stroke:#000000;stroke-linejoin:miter;stroke-width:0.325058;"/>
   </g>
   <g id="patch_52">
    <path clip-path="url(#p1edc517a68)" d="M 213.483534 332.12 
L 216.451152 332.12 
L 216.451152 193.008841 
L 213.483534 193.008841 
z
" style="fill:#1f77b4;fill-opacity:0.75;stroke:#000000;stroke-linejoin:miter;stroke-width:0.325058;"/>
   </g>
   <g id="patch_53">
    <path clip-path="url(#p1edc517a68)" d="M 216.451152 332.12 
L 219.41877 332.12 
L 219.41877 196.451556 
L 216.451152 196.451556 
z
" style="fill:#1f77b4;fill-opacity:0.75;stroke:#000000;stroke-linejoin:miter;stroke-width:0.325058;"/>
   </g>
   <g id="patch_54">
    <path clip-path="url(#p1edc517a68)" d="M 219.41877 332.12 
L 222.386388 332.12 
L 222.386388 206.269667 
L 219.41877 206.269667 
z
" style="fill:#1f77b4;fill-opacity:0.75;stroke:#000000;stroke-linejoin:miter;stroke-width:0.325058;"/>
   </g>
   <g id="patch_55">
    <path clip-path="url(#p1edc517a68)" d="M 222.386388 332.12 
L 225.354006 332.12 
L 225.354006 215.32273 
L 222.386388 215.32273 
z
" style="fill:#1f77b4;fill-opacity:0.75;stroke:#000000;stroke-linejoin:miter;stroke-width:0.325058;"/>
   </g>
   <g id="patch_56">
    <path clip-path="url(#p1edc517a68)" d="M 225.354006 332.12 
L 228.321624 332.12 
L 228.321624 222.973206 
L 225.354006 222.973206 
z
" style="fill:#1f77b4;fill-opacity:0.75;stroke:#000000;stroke-linejoin:miter;stroke-width:0.325058;"/>
   </g>
   <g id="patch_57">
    <path clip-path="url(#p1edc517a68)" d="M 228.321624 332.12 
L 231.289242 332.12 
L 231.289242 231.38873 
L 228.321624 231.38873 
z
" style="fill:#1f77b4;fill-opacity:0.75;stroke:#000000;stroke-linejoin:miter;stroke-width:0.325058;"/>
   </g>
   <g id="patch_58">
    <path clip-path="url(#p1edc517a68)" d="M 231.289242 332.12 
L 234.25686 332.12 
L 234.25686 242.991952 
L 231.289242 242.991952 
z
" style="fill:#1f77b4;fill-opacity:0.75;stroke:#000000;stroke-linejoin:miter;stroke-width:0.325058;"/>
   </g>
   <g id="patch_59">
    <path clip-path="url(#p1edc517a68)" d="M 234.25686 332.12 
L 237.224478 332.12 
L 237.224478 240.569302 
L 234.25686 240.569302 
z
" style="fill:#1f77b4;fill-opacity:0.75;stroke:#000000;stroke-linejoin:miter;stroke-width:0.325058;"/>
   </g>
   <g id="patch_60">
    <path clip-path="url(#p1edc517a68)" d="M 237.224478 332.12 
L 240.192096 332.12 
L 240.192096 245.542111 
L 237.224478 245.542111 
z
" style="fill:#1f77b4;fill-opacity:0.75;stroke:#000000;stroke-linejoin:miter;stroke-width:0.325058;"/>
   </g>
   <g id="patch_61">
    <path clip-path="url(#p1edc517a68)" d="M 240.192096 332.12 
L 243.159714 332.12 
L 243.159714 256.252778 
L 240.192096 256.252778 
z
" style="fill:#1f77b4;fill-opacity:0.75;stroke:#000000;stroke-linejoin:miter;stroke-width:0.325058;"/>
   </g>
   <g id="patch_62">
    <path clip-path="url(#p1edc517a68)" d="M 243.159714 332.12 
L 246.127332 332.12 
L 246.127332 265.178333 
L 243.159714 265.178333 
z
" style="fill:#1f77b4;fill-opacity:0.75;stroke:#000000;stroke-linejoin:miter;stroke-width:0.325058;"/>
   </g>
   <g id="patch_63">
    <path clip-path="url(#p1edc517a68)" d="M 246.127332 332.12 
L 249.09495 332.12 
L 249.09495 273.593857 
L 246.127332 273.593857 
z
" style="fill:#1f77b4;fill-opacity:0.75;stroke:#000000;stroke-linejoin:miter;stroke-width:0.325058;"/>
   </g>
   <g id="patch_64">
    <path clip-path="url(#p1edc517a68)" d="M 249.09495 332.12 
L 252.062568 332.12 
L 252.062568 271.808746 
L 249.09495 271.808746 
z
" style="fill:#1f77b4;fill-opacity:0.75;stroke:#000000;stroke-linejoin:miter;stroke-width:0.325058;"/>
   </g>
   <g id="patch_65">
    <path clip-path="url(#p1edc517a68)" d="M 252.062568 332.12 
L 255.030186 332.12 
L 255.030186 281.499349 
L 252.062568 281.499349 
z
" style="fill:#1f77b4;fill-opacity:0.75;stroke:#000000;stroke-linejoin:miter;stroke-width:0.325058;"/>
   </g>
   <g id="patch_66">
    <path clip-path="url(#p1edc517a68)" d="M 255.030186 332.12 
L 257.997805 332.12 
L 257.997805 280.606794 
L 255.030186 280.606794 
z
" style="fill:#1f77b4;fill-opacity:0.75;stroke:#000000;stroke-linejoin:miter;stroke-width:0.325058;"/>
   </g>
   <g id="patch_67">
    <path clip-path="url(#p1edc517a68)" d="M 257.997805 332.12 
L 260.965423 332.12 
L 260.965423 289.914873 
L 257.997805 289.914873 
z
" style="fill:#1f77b4;fill-opacity:0.75;stroke:#000000;stroke-linejoin:miter;stroke-width:0.325058;"/>
   </g>
   <g id="patch_68">
    <path clip-path="url(#p1edc517a68)" d="M 260.965423 332.12 
L 263.933041 332.12 
L 263.933041 295.142698 
L 260.965423 295.142698 
z
" style="fill:#1f77b4;fill-opacity:0.75;stroke:#000000;stroke-linejoin:miter;stroke-width:0.325058;"/>
   </g>
   <g id="patch_69">
    <path clip-path="url(#p1edc517a68)" d="M 263.933041 332.12 
L 266.900659 332.12 
L 266.900659 297.055317 
L 263.933041 297.055317 
z
" style="fill:#1f77b4;fill-opacity:0.75;stroke:#000000;stroke-linejoin:miter;stroke-width:0.325058;"/>
   </g>
   <g id="patch_70">
    <path clip-path="url(#p1edc517a68)" d="M 266.900659 332.12 
L 269.868277 332.12 
L 269.868277 302.793175 
L 266.900659 302.793175 
z
" style="fill:#1f77b4;fill-opacity:0.75;stroke:#000000;stroke-linejoin:miter;stroke-width:0.325058;"/>
   </g>
   <g id="patch_71">
    <path clip-path="url(#p1edc517a68)" d="M 269.868277 332.12 
L 272.835895 332.12 
L 272.835895 304.705794 
L 269.868277 304.705794 
z
" style="fill:#1f77b4;fill-opacity:0.75;stroke:#000000;stroke-linejoin:miter;stroke-width:0.325058;"/>
   </g>
   <g id="patch_72">
    <path clip-path="url(#p1edc517a68)" d="M 272.835895 332.12 
L 275.803513 332.12 
L 275.803513 309.806111 
L 272.835895 309.806111 
z
" style="fill:#1f77b4;fill-opacity:0.75;stroke:#000000;stroke-linejoin:miter;stroke-width:0.325058;"/>
   </g>
   <g id="patch_73">
    <path clip-path="url(#p1edc517a68)" d="M 275.803513 332.12 
L 278.771131 332.12 
L 278.771131 309.041063 
L 275.803513 309.041063 
z
" style="fill:#1f77b4;fill-opacity:0.75;stroke:#000000;stroke-linejoin:miter;stroke-width:0.325058;"/>
   </g>
   <g id="patch_74">
    <path clip-path="url(#p1edc517a68)" d="M 278.771131 332.12 
L 281.738749 332.12 
L 281.738749 315.543968 
L 278.771131 315.543968 
z
" style="fill:#1f77b4;fill-opacity:0.75;stroke:#000000;stroke-linejoin:miter;stroke-width:0.325058;"/>
   </g>
   <g id="patch_75">
    <path clip-path="url(#p1edc517a68)" d="M 281.738749 332.12 
L 284.706367 332.12 
L 284.706367 318.476651 
L 281.738749 318.476651 
z
" style="fill:#1f77b4;fill-opacity:0.75;stroke:#000000;stroke-linejoin:miter;stroke-width:0.325058;"/>
   </g>
   <g id="patch_76">
    <path clip-path="url(#p1edc517a68)" d="M 284.706367 332.12 
L 287.673985 332.12 
L 287.673985 320.899302 
L 284.706367 320.899302 
z
" style="fill:#1f77b4;fill-opacity:0.75;stroke:#000000;stroke-linejoin:miter;stroke-width:0.325058;"/>
   </g>
   <g id="patch_77">
    <path clip-path="url(#p1edc517a68)" d="M 287.673985 332.12 
L 290.641603 332.12 
L 290.641603 321.791857 
L 287.673985 321.791857 
z
" style="fill:#1f77b4;fill-opacity:0.75;stroke:#000000;stroke-linejoin:miter;stroke-width:0.325058;"/>
   </g>
   <g id="patch_78">
    <path clip-path="url(#p1edc517a68)" d="M 290.641603 332.12 
L 293.609221 332.12 
L 293.609221 325.362079 
L 290.641603 325.362079 
z
" style="fill:#1f77b4;fill-opacity:0.75;stroke:#000000;stroke-linejoin:miter;stroke-width:0.325058;"/>
   </g>
   <g id="patch_79">
    <path clip-path="url(#p1edc517a68)" d="M 293.609221 332.12 
L 296.576839 332.12 
L 296.576839 324.979556 
L 293.609221 324.979556 
z
" style="fill:#1f77b4;fill-opacity:0.75;stroke:#000000;stroke-linejoin:miter;stroke-width:0.325058;"/>
   </g>
   <g id="patch_80">
    <path clip-path="url(#p1edc517a68)" d="M 296.576839 332.12 
L 299.544457 332.12 
L 299.544457 327.657222 
L 296.576839 327.657222 
z
" style="fill:#1f77b4;fill-opacity:0.75;stroke:#000000;stroke-linejoin:miter;stroke-width:0.325058;"/>
   </g>
   <g id="patch_81">
    <path clip-path="url(#p1edc517a68)" d="M 299.544457 332.12 
L 302.512075 332.12 
L 302.512075 328.677286 
L 299.544457 328.677286 
z
" style="fill:#1f77b4;fill-opacity:0.75;stroke:#000000;stroke-linejoin:miter;stroke-width:0.325058;"/>
   </g>
   <g id="patch_82">
    <path clip-path="url(#p1edc517a68)" d="M 302.512075 332.12 
L 305.479693 332.12 
L 305.479693 329.442333 
L 302.512075 329.442333 
z
" style="fill:#1f77b4;fill-opacity:0.75;stroke:#000000;stroke-linejoin:miter;stroke-width:0.325058;"/>
   </g>
   <g id="patch_83">
    <path clip-path="url(#p1edc517a68)" d="M 305.479693 332.12 
L 308.447311 332.12 
L 308.447311 329.569841 
L 305.479693 329.569841 
z
" style="fill:#1f77b4;fill-opacity:0.75;stroke:#000000;stroke-linejoin:miter;stroke-width:0.325058;"/>
   </g>
   <g id="patch_84">
    <path clip-path="url(#p1edc517a68)" d="M 308.447311 332.12 
L 311.414929 332.12 
L 311.414929 330.717413 
L 308.447311 330.717413 
z
" style="fill:#1f77b4;fill-opacity:0.75;stroke:#000000;stroke-linejoin:miter;stroke-width:0.325058;"/>
   </g>
   <g id="patch_85">
    <path clip-path="url(#p1edc517a68)" d="M 311.414929 332.12 
L 314.382547 332.12 
L 314.382547 331.227444 
L 311.414929 331.227444 
z
" style="fill:#1f77b4;fill-opacity:0.75;stroke:#000000;stroke-linejoin:miter;stroke-width:0.325058;"/>
   </g>
   <g id="patch_86">
    <path clip-path="url(#p1edc517a68)" d="M 314.382547 332.12 
L 317.350165 332.12 
L 317.350165 331.737476 
L 314.382547 331.737476 
z
" style="fill:#1f77b4;fill-opacity:0.75;stroke:#000000;stroke-linejoin:miter;stroke-width:0.325058;"/>
   </g>
   <g id="patch_87">
    <path clip-path="url(#p1edc517a68)" d="M 317.350165 332.12 
L 320.317783 332.12 
L 320.317783 331.737476 
L 317.350165 331.737476 
z
" style="fill:#1f77b4;fill-opacity:0.75;stroke:#000000;stroke-linejoin:miter;stroke-width:0.325058;"/>
   </g>
   <g id="patch_88">
    <path clip-path="url(#p1edc517a68)" d="M 320.317783 332.12 
L 323.285401 332.12 
L 323.285401 331.992492 
L 320.317783 331.992492 
z
" style="fill:#1f77b4;fill-opacity:0.75;stroke:#000000;stroke-linejoin:miter;stroke-width:0.325058;"/>
   </g>
   <g id="matplotlib.axis_1">
    <g id="xtick_1">
     <g id="line2d_1">
      <defs>
       <path d="M 0 0 
L 0 3.5 
" id="m818ad2dee3" style="stroke:#000000;stroke-width:0.8;"/>
      </defs>
      <g>
       <use style="stroke:#000000;stroke-width:0.8;" x="67.438313" xlink:href="#m818ad2dee3" y="332.12"/>
      </g>
     </g>
     <g id="text_1">
      <!-- 0.0 -->
      <g transform="translate(59.48675 346.718437)scale(0.1 -0.1)">
       <defs>
        <path d="M 2034 4250 
Q 1547 4250 1301 3770 
Q 1056 3291 1056 2328 
Q 1056 1369 1301 889 
Q 1547 409 2034 409 
Q 2525 409 2770 889 
Q 3016 1369 3016 2328 
Q 3016 3291 2770 3770 
Q 2525 4250 2034 4250 
z
M 2034 4750 
Q 2819 4750 3233 4129 
Q 3647 3509 3647 2328 
Q 3647 1150 3233 529 
Q 2819 -91 2034 -91 
Q 1250 -91 836 529 
Q 422 1150 422 2328 
Q 422 3509 836 4129 
Q 1250 4750 2034 4750 
z
" id="DejaVuSans-30" transform="scale(0.015625)"/>
        <path d="M 684 794 
L 1344 794 
L 1344 0 
L 684 0 
L 684 794 
z
" id="DejaVuSans-2e" transform="scale(0.015625)"/>
       </defs>
       <use xlink:href="#DejaVuSans-30"/>
       <use x="63.623047" xlink:href="#DejaVuSans-2e"/>
       <use x="95.410156" xlink:href="#DejaVuSans-30"/>
      </g>
     </g>
    </g>
    <g id="xtick_2">
     <g id="line2d_2">
      <g>
       <use style="stroke:#000000;stroke-width:0.8;" x="120.391565" xlink:href="#m818ad2dee3" y="332.12"/>
      </g>
     </g>
     <g id="text_2">
      <!-- 0.2 -->
      <g transform="translate(112.440002 346.718437)scale(0.1 -0.1)">
       <defs>
        <path d="M 1228 531 
L 3431 531 
L 3431 0 
L 469 0 
L 469 531 
Q 828 903 1448 1529 
Q 2069 2156 2228 2338 
Q 2531 2678 2651 2914 
Q 2772 3150 2772 3378 
Q 2772 3750 2511 3984 
Q 2250 4219 1831 4219 
Q 1534 4219 1204 4116 
Q 875 4013 500 3803 
L 500 4441 
Q 881 4594 1212 4672 
Q 1544 4750 1819 4750 
Q 2544 4750 2975 4387 
Q 3406 4025 3406 3419 
Q 3406 3131 3298 2873 
Q 3191 2616 2906 2266 
Q 2828 2175 2409 1742 
Q 1991 1309 1228 531 
z
" id="DejaVuSans-32" transform="scale(0.015625)"/>
       </defs>
       <use xlink:href="#DejaVuSans-30"/>
       <use x="63.623047" xlink:href="#DejaVuSans-2e"/>
       <use x="95.410156" xlink:href="#DejaVuSans-32"/>
      </g>
     </g>
    </g>
    <g id="xtick_3">
     <g id="line2d_3">
      <g>
       <use style="stroke:#000000;stroke-width:0.8;" x="173.344816" xlink:href="#m818ad2dee3" y="332.12"/>
      </g>
     </g>
     <g id="text_3">
      <!-- 0.4 -->
      <g transform="translate(165.393254 346.718437)scale(0.1 -0.1)">
       <defs>
        <path d="M 2419 4116 
L 825 1625 
L 2419 1625 
L 2419 4116 
z
M 2253 4666 
L 3047 4666 
L 3047 1625 
L 3713 1625 
L 3713 1100 
L 3047 1100 
L 3047 0 
L 2419 0 
L 2419 1100 
L 313 1100 
L 313 1709 
L 2253 4666 
z
" id="DejaVuSans-34" transform="scale(0.015625)"/>
       </defs>
       <use xlink:href="#DejaVuSans-30"/>
       <use x="63.623047" xlink:href="#DejaVuSans-2e"/>
       <use x="95.410156" xlink:href="#DejaVuSans-34"/>
      </g>
     </g>
    </g>
    <g id="xtick_4">
     <g id="line2d_4">
      <g>
       <use style="stroke:#000000;stroke-width:0.8;" x="226.298068" xlink:href="#m818ad2dee3" y="332.12"/>
      </g>
     </g>
     <g id="text_4">
      <!-- 0.6 -->
      <g transform="translate(218.346505 346.718437)scale(0.1 -0.1)">
       <defs>
        <path d="M 2113 2584 
Q 1688 2584 1439 2293 
Q 1191 2003 1191 1497 
Q 1191 994 1439 701 
Q 1688 409 2113 409 
Q 2538 409 2786 701 
Q 3034 994 3034 1497 
Q 3034 2003 2786 2293 
Q 2538 2584 2113 2584 
z
M 3366 4563 
L 3366 3988 
Q 3128 4100 2886 4159 
Q 2644 4219 2406 4219 
Q 1781 4219 1451 3797 
Q 1122 3375 1075 2522 
Q 1259 2794 1537 2939 
Q 1816 3084 2150 3084 
Q 2853 3084 3261 2657 
Q 3669 2231 3669 1497 
Q 3669 778 3244 343 
Q 2819 -91 2113 -91 
Q 1303 -91 875 529 
Q 447 1150 447 2328 
Q 447 3434 972 4092 
Q 1497 4750 2381 4750 
Q 2619 4750 2861 4703 
Q 3103 4656 3366 4563 
z
" id="DejaVuSans-36" transform="scale(0.015625)"/>
       </defs>
       <use xlink:href="#DejaVuSans-30"/>
       <use x="63.623047" xlink:href="#DejaVuSans-2e"/>
       <use x="95.410156" xlink:href="#DejaVuSans-36"/>
      </g>
     </g>
    </g>
    <g id="xtick_5">
     <g id="line2d_5">
      <g>
       <use style="stroke:#000000;stroke-width:0.8;" x="279.25132" xlink:href="#m818ad2dee3" y="332.12"/>
      </g>
     </g>
     <g id="text_5">
      <!-- 0.8 -->
      <g transform="translate(271.299757 346.718437)scale(0.1 -0.1)">
       <defs>
        <path d="M 2034 2216 
Q 1584 2216 1326 1975 
Q 1069 1734 1069 1313 
Q 1069 891 1326 650 
Q 1584 409 2034 409 
Q 2484 409 2743 651 
Q 3003 894 3003 1313 
Q 3003 1734 2745 1975 
Q 2488 2216 2034 2216 
z
M 1403 2484 
Q 997 2584 770 2862 
Q 544 3141 544 3541 
Q 544 4100 942 4425 
Q 1341 4750 2034 4750 
Q 2731 4750 3128 4425 
Q 3525 4100 3525 3541 
Q 3525 3141 3298 2862 
Q 3072 2584 2669 2484 
Q 3125 2378 3379 2068 
Q 3634 1759 3634 1313 
Q 3634 634 3220 271 
Q 2806 -91 2034 -91 
Q 1263 -91 848 271 
Q 434 634 434 1313 
Q 434 1759 690 2068 
Q 947 2378 1403 2484 
z
M 1172 3481 
Q 1172 3119 1398 2916 
Q 1625 2713 2034 2713 
Q 2441 2713 2670 2916 
Q 2900 3119 2900 3481 
Q 2900 3844 2670 4047 
Q 2441 4250 2034 4250 
Q 1625 4250 1398 4047 
Q 1172 3844 1172 3481 
z
" id="DejaVuSans-38" transform="scale(0.015625)"/>
       </defs>
       <use xlink:href="#DejaVuSans-30"/>
       <use x="63.623047" xlink:href="#DejaVuSans-2e"/>
       <use x="95.410156" xlink:href="#DejaVuSans-38"/>
      </g>
     </g>
    </g>
    <g id="xtick_6">
     <g id="line2d_6">
      <g>
       <use style="stroke:#000000;stroke-width:0.8;" x="332.204571" xlink:href="#m818ad2dee3" y="332.12"/>
      </g>
     </g>
     <g id="text_6">
      <!-- 1.0 -->
      <g transform="translate(324.253009 346.718437)scale(0.1 -0.1)">
       <defs>
        <path d="M 794 531 
L 1825 531 
L 1825 4091 
L 703 3866 
L 703 4441 
L 1819 4666 
L 2450 4666 
L 2450 531 
L 3481 531 
L 3481 0 
L 794 0 
L 794 531 
z
" id="DejaVuSans-31" transform="scale(0.015625)"/>
       </defs>
       <use xlink:href="#DejaVuSans-31"/>
       <use x="63.623047" xlink:href="#DejaVuSans-2e"/>
       <use x="95.410156" xlink:href="#DejaVuSans-30"/>
      </g>
     </g>
    </g>
   </g>
   <g id="matplotlib.axis_2">
    <g id="ytick_1">
     <g id="line2d_7">
      <defs>
       <path d="M 0 0 
L -3.5 0 
" id="mfcfe3e0adc" style="stroke:#000000;stroke-width:0.8;"/>
      </defs>
      <g>
       <use style="stroke:#000000;stroke-width:0.8;" x="54.2" xlink:href="#mfcfe3e0adc" y="332.12"/>
      </g>
     </g>
     <g id="text_7">
      <!-- 0.00 -->
      <g transform="translate(24.934375 335.919219)scale(0.1 -0.1)">
       <use xlink:href="#DejaVuSans-30"/>
       <use x="63.623047" xlink:href="#DejaVuSans-2e"/>
       <use x="95.410156" xlink:href="#DejaVuSans-30"/>
       <use x="159.033203" xlink:href="#DejaVuSans-30"/>
      </g>
     </g>
    </g>
    <g id="ytick_2">
     <g id="line2d_8">
      <g>
       <use style="stroke:#000000;stroke-width:0.8;" x="54.2" xlink:href="#mfcfe3e0adc" y="296.390858"/>
      </g>
     </g>
     <g id="text_8">
      <!-- 0.25 -->
      <g transform="translate(24.934375 300.190077)scale(0.1 -0.1)">
       <defs>
        <path d="M 691 4666 
L 3169 4666 
L 3169 4134 
L 1269 4134 
L 1269 2991 
Q 1406 3038 1543 3061 
Q 1681 3084 1819 3084 
Q 2600 3084 3056 2656 
Q 3513 2228 3513 1497 
Q 3513 744 3044 326 
Q 2575 -91 1722 -91 
Q 1428 -91 1123 -41 
Q 819 9 494 109 
L 494 744 
Q 775 591 1075 516 
Q 1375 441 1709 441 
Q 2250 441 2565 725 
Q 2881 1009 2881 1497 
Q 2881 1984 2565 2268 
Q 2250 2553 1709 2553 
Q 1456 2553 1204 2497 
Q 953 2441 691 2322 
L 691 4666 
z
" id="DejaVuSans-35" transform="scale(0.015625)"/>
       </defs>
       <use xlink:href="#DejaVuSans-30"/>
       <use x="63.623047" xlink:href="#DejaVuSans-2e"/>
       <use x="95.410156" xlink:href="#DejaVuSans-32"/>
       <use x="159.033203" xlink:href="#DejaVuSans-35"/>
      </g>
     </g>
    </g>
    <g id="ytick_3">
     <g id="line2d_9">
      <g>
       <use style="stroke:#000000;stroke-width:0.8;" x="54.2" xlink:href="#mfcfe3e0adc" y="260.661716"/>
      </g>
     </g>
     <g id="text_9">
      <!-- 0.50 -->
      <g transform="translate(24.934375 264.460934)scale(0.1 -0.1)">
       <use xlink:href="#DejaVuSans-30"/>
       <use x="63.623047" xlink:href="#DejaVuSans-2e"/>
       <use x="95.410156" xlink:href="#DejaVuSans-35"/>
       <use x="159.033203" xlink:href="#DejaVuSans-30"/>
      </g>
     </g>
    </g>
    <g id="ytick_4">
     <g id="line2d_10">
      <g>
       <use style="stroke:#000000;stroke-width:0.8;" x="54.2" xlink:href="#mfcfe3e0adc" y="224.932573"/>
      </g>
     </g>
     <g id="text_10">
      <!-- 0.75 -->
      <g transform="translate(24.934375 228.731792)scale(0.1 -0.1)">
       <defs>
        <path d="M 525 4666 
L 3525 4666 
L 3525 4397 
L 1831 0 
L 1172 0 
L 2766 4134 
L 525 4134 
L 525 4666 
z
" id="DejaVuSans-37" transform="scale(0.015625)"/>
       </defs>
       <use xlink:href="#DejaVuSans-30"/>
       <use x="63.623047" xlink:href="#DejaVuSans-2e"/>
       <use x="95.410156" xlink:href="#DejaVuSans-37"/>
       <use x="159.033203" xlink:href="#DejaVuSans-35"/>
      </g>
     </g>
    </g>
    <g id="ytick_5">
     <g id="line2d_11">
      <g>
       <use style="stroke:#000000;stroke-width:0.8;" x="54.2" xlink:href="#mfcfe3e0adc" y="189.203431"/>
      </g>
     </g>
     <g id="text_11">
      <!-- 1.00 -->
      <g transform="translate(24.934375 193.00265)scale(0.1 -0.1)">
       <use xlink:href="#DejaVuSans-31"/>
       <use x="63.623047" xlink:href="#DejaVuSans-2e"/>
       <use x="95.410156" xlink:href="#DejaVuSans-30"/>
       <use x="159.033203" xlink:href="#DejaVuSans-30"/>
      </g>
     </g>
    </g>
    <g id="ytick_6">
     <g id="line2d_12">
      <g>
       <use style="stroke:#000000;stroke-width:0.8;" x="54.2" xlink:href="#mfcfe3e0adc" y="153.474289"/>
      </g>
     </g>
     <g id="text_12">
      <!-- 1.25 -->
      <g transform="translate(24.934375 157.273508)scale(0.1 -0.1)">
       <use xlink:href="#DejaVuSans-31"/>
       <use x="63.623047" xlink:href="#DejaVuSans-2e"/>
       <use x="95.410156" xlink:href="#DejaVuSans-32"/>
       <use x="159.033203" xlink:href="#DejaVuSans-35"/>
      </g>
     </g>
    </g>
    <g id="ytick_7">
     <g id="line2d_13">
      <g>
       <use style="stroke:#000000;stroke-width:0.8;" x="54.2" xlink:href="#mfcfe3e0adc" y="117.745147"/>
      </g>
     </g>
     <g id="text_13">
      <!-- 1.50 -->
      <g transform="translate(24.934375 121.544365)scale(0.1 -0.1)">
       <use xlink:href="#DejaVuSans-31"/>
       <use x="63.623047" xlink:href="#DejaVuSans-2e"/>
       <use x="95.410156" xlink:href="#DejaVuSans-35"/>
       <use x="159.033203" xlink:href="#DejaVuSans-30"/>
      </g>
     </g>
    </g>
    <g id="ytick_8">
     <g id="line2d_14">
      <g>
       <use style="stroke:#000000;stroke-width:0.8;" x="54.2" xlink:href="#mfcfe3e0adc" y="82.016004"/>
      </g>
     </g>
     <g id="text_14">
      <!-- 1.75 -->
      <g transform="translate(24.934375 85.815223)scale(0.1 -0.1)">
       <use xlink:href="#DejaVuSans-31"/>
       <use x="63.623047" xlink:href="#DejaVuSans-2e"/>
       <use x="95.410156" xlink:href="#DejaVuSans-37"/>
       <use x="159.033203" xlink:href="#DejaVuSans-35"/>
      </g>
     </g>
    </g>
    <g id="ytick_9">
     <g id="line2d_15">
      <g>
       <use style="stroke:#000000;stroke-width:0.8;" x="54.2" xlink:href="#mfcfe3e0adc" y="46.286862"/>
      </g>
     </g>
     <g id="text_15">
      <!-- 2.00 -->
      <g transform="translate(24.934375 50.086081)scale(0.1 -0.1)">
       <use xlink:href="#DejaVuSans-32"/>
       <use x="63.623047" xlink:href="#DejaVuSans-2e"/>
       <use x="95.410156" xlink:href="#DejaVuSans-30"/>
       <use x="159.033203" xlink:href="#DejaVuSans-30"/>
      </g>
     </g>
    </g>
    <g id="text_16">
     <!-- Density -->
     <g transform="translate(18.854688 190.468594)rotate(-90)scale(0.1 -0.1)">
      <defs>
       <path d="M 1259 4147 
L 1259 519 
L 2022 519 
Q 2988 519 3436 956 
Q 3884 1394 3884 2338 
Q 3884 3275 3436 3711 
Q 2988 4147 2022 4147 
L 1259 4147 
z
M 628 4666 
L 1925 4666 
Q 3281 4666 3915 4102 
Q 4550 3538 4550 2338 
Q 4550 1131 3912 565 
Q 3275 0 1925 0 
L 628 0 
L 628 4666 
z
" id="DejaVuSans-44" transform="scale(0.015625)"/>
       <path d="M 3597 1894 
L 3597 1613 
L 953 1613 
Q 991 1019 1311 708 
Q 1631 397 2203 397 
Q 2534 397 2845 478 
Q 3156 559 3463 722 
L 3463 178 
Q 3153 47 2828 -22 
Q 2503 -91 2169 -91 
Q 1331 -91 842 396 
Q 353 884 353 1716 
Q 353 2575 817 3079 
Q 1281 3584 2069 3584 
Q 2775 3584 3186 3129 
Q 3597 2675 3597 1894 
z
M 3022 2063 
Q 3016 2534 2758 2815 
Q 2500 3097 2075 3097 
Q 1594 3097 1305 2825 
Q 1016 2553 972 2059 
L 3022 2063 
z
" id="DejaVuSans-65" transform="scale(0.015625)"/>
       <path d="M 3513 2113 
L 3513 0 
L 2938 0 
L 2938 2094 
Q 2938 2591 2744 2837 
Q 2550 3084 2163 3084 
Q 1697 3084 1428 2787 
Q 1159 2491 1159 1978 
L 1159 0 
L 581 0 
L 581 3500 
L 1159 3500 
L 1159 2956 
Q 1366 3272 1645 3428 
Q 1925 3584 2291 3584 
Q 2894 3584 3203 3211 
Q 3513 2838 3513 2113 
z
" id="DejaVuSans-6e" transform="scale(0.015625)"/>
       <path d="M 2834 3397 
L 2834 2853 
Q 2591 2978 2328 3040 
Q 2066 3103 1784 3103 
Q 1356 3103 1142 2972 
Q 928 2841 928 2578 
Q 928 2378 1081 2264 
Q 1234 2150 1697 2047 
L 1894 2003 
Q 2506 1872 2764 1633 
Q 3022 1394 3022 966 
Q 3022 478 2636 193 
Q 2250 -91 1575 -91 
Q 1294 -91 989 -36 
Q 684 19 347 128 
L 347 722 
Q 666 556 975 473 
Q 1284 391 1588 391 
Q 1994 391 2212 530 
Q 2431 669 2431 922 
Q 2431 1156 2273 1281 
Q 2116 1406 1581 1522 
L 1381 1569 
Q 847 1681 609 1914 
Q 372 2147 372 2553 
Q 372 3047 722 3315 
Q 1072 3584 1716 3584 
Q 2034 3584 2315 3537 
Q 2597 3491 2834 3397 
z
" id="DejaVuSans-73" transform="scale(0.015625)"/>
       <path d="M 603 3500 
L 1178 3500 
L 1178 0 
L 603 0 
L 603 3500 
z
M 603 4863 
L 1178 4863 
L 1178 4134 
L 603 4134 
L 603 4863 
z
" id="DejaVuSans-69" transform="scale(0.015625)"/>
       <path d="M 1172 4494 
L 1172 3500 
L 2356 3500 
L 2356 3053 
L 1172 3053 
L 1172 1153 
Q 1172 725 1289 603 
Q 1406 481 1766 481 
L 2356 481 
L 2356 0 
L 1766 0 
Q 1100 0 847 248 
Q 594 497 594 1153 
L 594 3053 
L 172 3053 
L 172 3500 
L 594 3500 
L 594 4494 
L 1172 4494 
z
" id="DejaVuSans-74" transform="scale(0.015625)"/>
       <path d="M 2059 -325 
Q 1816 -950 1584 -1140 
Q 1353 -1331 966 -1331 
L 506 -1331 
L 506 -850 
L 844 -850 
Q 1081 -850 1212 -737 
Q 1344 -625 1503 -206 
L 1606 56 
L 191 3500 
L 800 3500 
L 1894 763 
L 2988 3500 
L 3597 3500 
L 2059 -325 
z
" id="DejaVuSans-79" transform="scale(0.015625)"/>
      </defs>
      <use xlink:href="#DejaVuSans-44"/>
      <use x="77.001953" xlink:href="#DejaVuSans-65"/>
      <use x="138.525391" xlink:href="#DejaVuSans-6e"/>
      <use x="201.904297" xlink:href="#DejaVuSans-73"/>
      <use x="254.003906" xlink:href="#DejaVuSans-69"/>
      <use x="281.787109" xlink:href="#DejaVuSans-74"/>
      <use x="320.996094" xlink:href="#DejaVuSans-79"/>
     </g>
    </g>
   </g>
   <g id="line2d_16">
    <path clip-path="url(#p1edc517a68)" d="M 67.438313 332.12 
L 70.618688 299.008159 
L 73.799064 268.282523 
L 76.714408 242.139217 
L 79.629752 217.861858 
L 82.545096 195.385474 
L 85.460441 174.646101 
L 88.375785 155.580782 
L 91.026098 139.649219 
L 93.676411 125.004145 
L 96.326723 111.600427 
L 98.977036 99.393627 
L 101.362318 89.394693 
L 103.7476 80.298394 
L 106.132881 72.073763 
L 108.518163 64.690285 
L 110.638413 58.809032 
L 112.758663 53.547819 
L 114.878914 48.886113 
L 116.999164 44.803665 
L 118.854383 41.69099 
L 120.709602 38.993316 
L 122.564821 36.697608 
L 124.42004 34.790999 
L 126.010228 33.456817 
L 127.600416 32.391264 
L 129.190603 31.586524 
L 130.780791 31.034874 
L 132.370979 30.728676 
L 133.961167 30.660386 
L 135.551354 30.822545 
L 137.141542 31.207786 
L 138.73173 31.808831 
L 140.586949 32.773215 
L 142.442168 34.010287 
L 144.297387 35.508949 
L 146.417637 37.528005 
L 148.537888 39.858402 
L 150.923169 42.832623 
L 153.308451 46.158904 
L 155.958764 50.241451 
L 158.874108 55.168983 
L 162.054483 61.023491 
L 165.49989 67.876517 
L 169.210328 75.785421 
L 173.185797 84.78973 
L 177.691329 95.555475 
L 182.991955 108.833587 
L 189.352706 125.403687 
L 198.893833 150.970869 
L 212.67546 187.855057 
L 219.831304 206.338712 
L 225.661993 220.817963 
L 230.962619 233.418017 
L 235.998213 244.817312 
L 240.768776 255.049947 
L 245.274308 264.169184 
L 249.514809 272.241468 
L 253.490278 279.341495 
L 257.465748 285.975802 
L 261.176186 291.739436 
L 264.886624 297.084522 
L 268.33203 301.671146 
L 271.777437 305.89536 
L 275.222844 309.759471 
L 278.403219 313.010391 
L 281.583595 315.962949 
L 284.76397 318.623425 
L 287.944346 320.999524 
L 291.124721 323.100382 
L 294.305097 324.936559 
L 297.485472 326.520049 
L 300.665848 327.864269 
L 304.111255 329.067753 
L 307.556661 330.028645 
L 311.267099 330.818274 
L 314.977537 331.383899 
L 319.218038 331.799253 
L 323.988601 332.037242 
L 330.614384 332.119384 
L 332.204571 332.12 
L 332.204571 332.12 
" style="fill:none;stroke:#ff0000;stroke-linecap:square;stroke-width:1.5;"/>
   </g>
   <g id="patch_89">
    <path d="M 54.2 332.12 
L 54.2 10.8 
" style="fill:none;stroke:#000000;stroke-linecap:square;stroke-linejoin:miter;stroke-width:0.8;"/>
   </g>
   <g id="patch_90">
    <path d="M 54.2 332.12 
L 345.442884 332.12 
" style="fill:none;stroke:#000000;stroke-linecap:square;stroke-linejoin:miter;stroke-width:0.8;"/>
   </g>
  </g>
 </g>
 <defs>
  <clipPath id="p1edc517a68">
   <rect height="321.32" width="291.242884" x="54.2" y="10.8"/>
  </clipPath>
 </defs>
</svg>
